HIERARCHY
ROOT root
{
	OFFSET	0	13.1	24.9
	CHANNELS 6  Xposition Yposition Zposition Xrotation Yrotation Zrotation
	JOINT spine_1
	{
		OFFSET	0	9.99999	0
		CHANNELS 3  Xrotation Yrotation Zrotation
		JOINT spine_2
		{
			OFFSET	0	112	-10
			CHANNELS 3  Xrotation Yrotation Zrotation
			JOINT spine_3
			{
				OFFSET	0	206.5	19.3
				CHANNELS 3  Xrotation Yrotation Zrotation
				JOINT spine_4
				{
					OFFSET	0	110.4	14.6
					CHANNELS 3  Xrotation Yrotation Zrotation
					JOINT neck_1
					{
						OFFSET	0	71.8	-50.3
						CHANNELS 3  Xrotation Yrotation Zrotation
						JOINT neck_2
						{
							OFFSET	0	86.2	-25.8
							CHANNELS 3  Xrotation Yrotation Zrotation
							JOINT head_ee
							{
								OFFSET	0	179.8	-8.7
								CHANNELS 3  Xrotation Yrotation Zrotation
								End Site
								{
									OFFSET	1	0	0
								}
							}
						}
					}
					JOINT left_clavicle
					{
						OFFSET	-43.2	22.4	-70.8
						CHANNELS 3  Xrotation Yrotation Zrotation
						JOINT left_shoulder
						{
							OFFSET	-93.9	-5.79999	48.7
							CHANNELS 3  Xrotation Yrotation Zrotation
							JOINT left_elbow
							{
								OFFSET	-291.4	-30.8	15.2
								CHANNELS 3  Xrotation Yrotation Zrotation
								JOINT left_lowarm_twist
								{
									OFFSET	-110.7	-3.89999	13.6
									CHANNELS 3  Xrotation Yrotation Zrotation
									JOINT left_hand
									{
										OFFSET	-110.7	-3.89999	13.6
										CHANNELS 3  Xrotation Yrotation Zrotation
										JOINT left_ee
										{
											OFFSET	-80.8	-5.10001	12.1
											CHANNELS 3  Xrotation Yrotation Zrotation
											End Site
											{
												OFFSET	1	0	0
											}
										}
									}
								}
							}
						}
					}
					JOINT right_clavicle
					{
						OFFSET	43.2	22.4	-70.8
						CHANNELS 3  Xrotation Yrotation Zrotation
						JOINT right_shoulder
						{
							OFFSET	93.9	-5.79999	48.7
							CHANNELS 3  Xrotation Yrotation Zrotation
							JOINT right_elbow
							{
								OFFSET	291.4	-30.8	15.2
								CHANNELS 3  Xrotation Yrotation Zrotation
								JOINT right_lowarm_twist
								{
									OFFSET	110.7	-3.89999	13.6
									CHANNELS 3  Xrotation Yrotation Zrotation
									JOINT right_hand
									{
										OFFSET	110.7	-3.89999	13.6
										CHANNELS 3  Xrotation Yrotation Zrotation
										JOINT right_ee
										{
											OFFSET	80.8	-5.10001	12.1
											CHANNELS 3  Xrotation Yrotation Zrotation
											End Site
											{
												OFFSET	1	0	0
											}
										}
									}
								}
							}
						}
					}
				}
			}
		}
	}
	JOINT left_hip
	{
		OFFSET	-82.8	-127.5	0.300001
		CHANNELS 3  Xrotation Yrotation Zrotation
		JOINT left_knee
		{
			OFFSET	-28.2	-396.7	2.2
			CHANNELS 3  Xrotation Yrotation Zrotation
			JOINT left_ankle
			{
				OFFSET	-11.7	-411.3	35.4
				CHANNELS 3  Xrotation Yrotation Zrotation
				JOINT left_toes
				{
					OFFSET	0	-60	-88.6
					CHANNELS 3  Xrotation Yrotation Zrotation
					JOINT left_foot_ee
					{
						OFFSET	-22.5	-16.5	-42.2
						CHANNELS 3  Xrotation Yrotation Zrotation
						End Site
						{
							OFFSET	1	0	0
						}
					}
				}
			}
		}
	}
	JOINT right_hip
	{
		OFFSET	82.8	-127.5	0.300001
		CHANNELS 3  Xrotation Yrotation Zrotation
		JOINT right_knee
		{
			OFFSET	28.2	-396.7	2.2
			CHANNELS 3  Xrotation Yrotation Zrotation
			JOINT right_ankle
			{
				OFFSET	11.7	-411.3	35.4
				CHANNELS 3  Xrotation Yrotation Zrotation
				JOINT right_toes
				{
					OFFSET	0	-60	-88.6
					CHANNELS 3  Xrotation Yrotation Zrotation
					JOINT right_foot_ee
					{
						OFFSET	22.5	-16.5	-42.2
						CHANNELS 3  Xrotation Yrotation Zrotation
						End Site
						{
							OFFSET	1	0	0
						}
					}
				}
			}
		}
	}
}
MOTION
Frames: 16
Frame Time: 0.02
2800.94 716.97 -1473.77 16.2619870748 60.9229125441 -20.6606330177 -4.59417 0.27848 3.34897 -4.58793 0.0649344 3.35989 -4.57419 -0.904619 3.23661 -4.5886 -0.382406 3.33872 7.67657 20.1366 -3.06011 10.1205 36.5867 -3.97714 -0.0 0.0 -0.0 2.64875 -0.760727 5.04757 2.68461 -1.82737 46.9165 4.75482 -66.9729 3.14654 -43.4529 -3.32564 4.29748 -0.113188 17.275 6.33485 -0.0 0.0 -0.0 12.8948 22.2675 -25.819 -33.9212 38.2178 -48.4326 0.544771 15.1025 -0.0722166 -4.15293 0.164708 -0.504531 2.99576 -28.7561 -28.7961 0.0 0.0 0.0 -32.7292 20.7487 18.0126 -9.05124 0.265521 1.36227 7.07351 4.92021 -1.01671 -14.5436 0.0 0.0 -0.0 0.0 -0.0 22.1749 27.6041 -10.2804 -3.67364 -0.133727 -0.547834 -20.7195 -4.36098 -3.12444 -7.48615 0.0 0.0 0.0 0.0 0.0 
2776.54842422 723.933 -1476.85688042 17.2608687856 61.0972729514 -22.0979431748 -4.46484 0.422145 3.54458 -4.45788 0.195885 3.56423 -4.43423 -0.829423 3.47202 -4.45095 -0.271038 3.55931 6.51531 19.8804 -2.69777 8.69637 36.1555 -3.18815 -0.0 0.0 -0.0 2.70463 -0.429834 5.18022 0.72307 -1.85889 48.0718 3.91365 -62.6974 2.38468 -43.8325 -3.36766 4.32212 0.0111906 16.4394 6.77314 -0.0 0.0 -0.0 13.0614 21.9488 -26.2344 -33.2164 39.1441 -48.2883 0.669121 18.3385 -0.108007 -4.56183 0.182897 -0.553543 2.89267 -29.9944 -28.3401 0.0 0.0 0.0 -31.8867 19.5684 17.1148 -13.0518 0.313704 1.97409 3.47267 3.42212 -0.505497 -13.4496 0.0 0.0 -0.0 0.0 -0.0 21.3503 27.3398 -9.36046 -6.97653 -0.223743 -1.04665 -19.3104 -4.03978 -2.91195 -5.9108 0.0 0.0 0.0 0.0 0.0 
2752.2733351 724.216 -1483.91363977 18.3833143739 61.4878189402 -23.7901833028 -4.46113 0.492871 3.57635 -4.45405 0.26445 3.60042 -4.42551 -0.773399 3.5264 -4.4428 -0.207144 3.60417 6.7808 19.3944 -3.79556 9.08893 36.2021 -4.59241 -0.0 0.0 -0.0 2.74397 0.177839 5.29986 -1.40348 -1.46903 49.3828 3.51456 -60.113 2.03418 -43.398 -3.31958 4.29389 0.303415 15.711 8.30643 -0.0 0.0 -0.0 13.2774 21.7253 -26.7573 -33.3771 39.1811 -48.6902 0.679088 18.593 -0.111164 -5.14717 0.209544 -0.623478 2.84638 -30.0548 -28.0609 0.0 0.0 0.0 -31.0935 19.1041 16.7909 -18.4415 0.31093 2.80073 3.82786 2.2294 -0.557738 -13.4223 0.0 0.0 -0.0 0.0 -0.0 20.6739 27.3703 -9.09164 -7.93557 -0.244476 -1.19236 -19.3351 -4.65205 -2.91333 -6.32992 0.0 0.0 0.0 0.0 0.0 
2752.4397211 724.216 -1484.68149151 17.8737960231 60.6272293438 -23.2079647477 -4.46113 0.492871 3.57635 -4.45405 0.26445 3.60042 -4.42551 -0.773399 3.5264 -4.4428 -0.207144 3.60417 6.7808 19.3944 -3.79556 9.08893 36.2021 -4.59241 -0.0 0.0 -0.0 2.74397 0.177839 5.29986 -1.40348 -1.46903 49.3828 3.51456 -60.113 2.03418 -43.398 -3.31958 4.29389 0.303415 15.711 8.30643 -0.0 0.0 -0.0 13.2774 21.7253 -26.7573 -33.3771 39.1811 -48.6902 0.679088 18.593 -0.111164 -5.14717 0.209544 -0.623478 2.84638 -30.0548 -28.0609 0.0 0.0 0.0 -31.0935 19.1041 16.7909 -18.4415 0.31093 2.80073 3.82786 2.2294 -0.557738 -13.4223 0.0 0.0 -0.0 0.0 -0.0 20.6739 27.3703 -9.09164 -7.93557 -0.244476 -1.19236 -19.3351 -4.65205 -2.91333 -6.32992 0.0 0.0 0.0 0.0 0.0 
2752.64466167 724.216 -1485.55549939 17.3289217342 59.6409885044 -22.5796703146 -4.46113 0.492871 3.57635 -4.45405 0.26445 3.60042 -4.42551 -0.773399 3.5264 -4.4428 -0.207144 3.60417 6.7808 19.3944 -3.79556 9.08893 36.2021 -4.59241 -0.0 0.0 -0.0 2.74397 0.177839 5.29986 -1.40348 -1.46903 49.3828 3.51456 -60.113 2.03418 -43.398 -3.31958 4.29389 0.303415 15.711 8.30643 -0.0 0.0 -0.0 13.2774 21.7253 -26.7573 -33.3771 39.1811 -48.6902 0.679088 18.593 -0.111164 -5.14717 0.209544 -0.623478 2.84638 -30.0548 -28.0609 0.0 0.0 0.0 -31.0935 19.1041 16.7909 -18.4415 0.31093 2.80073 3.82786 2.2294 -0.557738 -13.4223 0.0 0.0 -0.0 0.0 -0.0 20.6739 27.3703 -9.09164 -7.93557 -0.244476 -1.19236 -19.3351 -4.65205 -2.91333 -6.32992 0.0 0.0 0.0 0.0 0.0 
2725.51877263 725.48 -1489.16035286 15.8374233479 60.4939282919 -21.3580654421 -4.42362 0.668933 3.65029 -4.41631 0.435462 3.6854 -4.37529 -0.630236 3.65716 -4.39394 -0.0451604 3.71072 7.04516 18.6902 -5.31043 9.52717 36.2449 -6.51644 -0.0 0.0 -0.0 2.8092 1.05162 5.48597 -3.79478 -1.08522 51.0214 3.36731 -59.0436 1.90719 -43.338 -3.31294 4.28996 0.524404 14.6377 9.2885 -0.0 0.0 -0.0 13.424 21.8503 -27.0894 -32.8873 39.3664 -48.4929 0.679458 18.6025 -0.111282 -5.33357 0.218179 -0.645692 2.78351 -30.0444 -27.6691 0.0 0.0 0.0 -29.8724 18.7462 15.476 -18.4794 0.310636 2.80653 4.35102 1.40474 -0.634025 -13.3762 0.0 0.0 -0.0 0.0 -0.0 19.4908 27.4339 -8.59514 -8.09039 -0.247594 -1.21592 -19.3522 -5.45418 -2.91332 -6.33777 0.0 0.0 0.0 0.0 0.0 
2708.84907514 717.915 -1490.51586692 17.0253975176 61.5354050204 -22.9689394372 -4.49429 0.797709 3.7148 -4.48678 0.559882 3.75794 -4.43599 -0.535347 3.76151 -4.45572 0.0649876 3.79881 6.83367 18.8285 -5.39411 9.3421 36.6008 -6.57354 -0.0 0.0 -0.0 2.98065 1.26688 5.82785 -4.20544 -1.02709 51.5789 3.26371 -58.249 1.81873 -43.1642 -3.29379 4.27854 0.486392 14.225 8.89388 -0.0 0.0 -0.0 13.6572 22.0999 -27.6141 -32.2096 39.7621 -48.4432 0.67418 18.4678 -0.109604 -5.91356 0.245511 -0.714632 2.73945 -30.0349 -27.3952 0.0 0.0 0.0 -29.5011 17.6104 15.0277 -19.3518 0.302787 2.94017 4.24432 1.45623 -0.618604 -13.6259 0.0 0.0 -0.0 0.0 -0.0 19.3118 27.0418 -9.09621 -7.96112 -0.244995 -1.19625 -18.6146 -6.00758 -2.79998 -6.25068 0.0 0.0 0.0 0.0 0.0 
2694.44313341 726.163 -1489.69547353 19.2062332251 64.2851888738 -25.1101316787 -4.48376 0.773733 3.78717 -4.47594 0.531359 3.82864 -4.42599 -0.582283 3.82124 -4.44636 0.0280502 3.86518 5.87098 17.7651 -5.78437 8.0821 35.3345 -6.68348 -0.0 0.0 -0.0 2.99756 0.974341 5.84113 -6.18656 -1.82752 52.4448 2.80119 -54.2113 1.434 -42.7579 -3.24912 4.25162 0.571476 13.0841 9.00385 -0.0 0.0 -0.0 13.8209 22.7081 -27.9427 -30.4187 40.6635 -48.0976 0.689617 18.861 -0.114544 -5.86579 0.243234 -0.708964 2.88588 -30.112 -28.3158 0.0 0.0 0.0 -28.1492 17.6838 12.962 -19.6018 0.300163 2.97844 4.51504 1.52132 -0.657448 -13.6249 0.0 0.0 -0.0 0.0 -0.0 18.9509 27.2511 -8.17913 -9.91669 -0.279564 -1.49432 -18.8732 -6.0505 -2.83912 -6.76938 0.0 0.0 0.0 0.0 0.0 
2694.63453759 726.163 -1490.92668855 18.764555013 63.658261516 -24.6186092129 -4.48376 0.773733 3.78717 -4.47594 0.531359 3.82864 -4.42599 -0.582283 3.82124 -4.44636 0.0280502 3.86518 5.87098 17.7651 -5.78437 8.0821 35.3345 -6.68348 -0.0 0.0 -0.0 2.99756 0.974341 5.84113 -6.18656 -1.82752 52.4448 2.80119 -54.2113 1.434 -42.7579 -3.24912 4.25162 0.571476 13.0841 9.00385 -0.0 0.0 -0.0 13.8209 22.7081 -27.9427 -30.4187 40.6635 -48.0976 0.689617 18.861 -0.114544 -5.86579 0.243234 -0.708964 2.88588 -30.112 -28.3158 0.0 0.0 0.0 -28.1492 17.6838 12.962 -19.6018 0.300163 2.97844 4.51504 1.52132 -0.657448 -13.6249 0.0 0.0 -0.0 0.0 -0.0 18.9509 27.2511 -8.17913 -9.91669 -0.279564 -1.49432 -18.8732 -6.0505 -2.83912 -6.76938 0.0 0.0 0.0 0.0 0.0 
2672.88573919 731.991 -1491.61702463 20.2030157731 65.8909581685 -25.8520568436 -4.47361 0.778602 3.85941 -4.46548 0.531631 3.90104 -4.41434 -0.601911 3.89083 -4.43546 0.0196328 3.937 5.1608 17.0034 -6.04109 7.1667 34.3865 -6.74 -0.0 0.0 -0.0 3.19835 0.762098 6.21249 -8.13241 -2.42739 53.5982 2.44976 -50.5024 1.15558 -42.4682 -3.2174 4.23224 0.643281 12.2876 9.16218 -0.0 0.0 -0.0 14.002 23.3095 -28.31 -28.7488 41.5458 -47.6869 0.705395 19.2611 -0.119697 -5.83403 0.241722 -0.705196 2.98153 -30.0845 -28.9104 0.0 0.0 0.0 -27.1345 17.7024 11.4628 -19.8545 0.297342 3.0171 4.65114 1.57038 -0.676924 -13.6037 0.0 0.0 -0.0 0.0 -0.0 18.6661 27.9251 -7.7999 -11.3248 -0.298146 -1.70958 -19.001 -5.77595 -2.85916 -7.13126 0.0 0.0 0.0 0.0 0.0 
2661.81211466 728.515 -1490.56275795 22.1535205378 67.3915209662 -28.3586998219 -4.27532 0.790977 3.86905 -4.26716 0.543371 3.91145 -4.21546 -0.580026 3.90619 -4.23674 0.0436633 3.94871 4.46562 16.8302 -3.96762 6.01529 32.4658 -4.03033 -0.0 0.0 -0.0 3.31645 1.20675 6.46569 -10.6143 -4.51156 53.5293 1.90473 -43.3317 0.756729 -39.3793 -2.88539 4.01572 0.945855 8.55256 9.70933 -0.0 0.0 -0.0 14.0604 23.7676 -28.4005 -27.68 42.1102 -47.2496 0.716706 19.5467 -0.123455 -5.81154 0.240653 -0.702525 2.87107 -28.0309 -27.8802 0.0 0.0 0.0 -23.8522 17.5375 9.47867 -27.0785 0.144834 4.11444 4.35844 0.782448 -0.635954 -11.3469 0.0 0.0 -0.0 0.0 -0.0 14.7701 30.3323 -7.22995 -7.30202 -0.231053 -1.09607 -18.606 -4.42246 -2.80342 -10.1196 0.0 0.0 0.0 0.0 0.0 
2630.6938696 738.227 -1487.11457134 27.6980881919 71.4334922174 -33.8332844361 -3.99094 0.637037 3.72241 -3.98332 0.399051 3.75533 -3.94469 -0.657173 3.71891 -3.96398 -0.06203 3.77594 2.03576 16.5162 -1.21817 2.9841 30.098 -0.233783 -0.0 0.0 -0.0 3.69718 2.31437 7.25098 -14.2478 -6.44529 55.162 1.38381 -34.4287 0.428758 -35.4923 -2.48502 3.71847 1.46981 3.29944 11.1755 -0.0 0.0 -0.0 13.6076 24.6981 -27.2374 -24.126 43.812 -47.9808 0.841368 22.6257 -0.168321 -4.76025 0.19185 -0.577279 2.39709 -22.33 -23.6142 0.0 0.0 0.0 -18.7961 19.256 6.89076 -35.9337 -0.228541 5.42066 1.63784 -0.00116445 -0.241275 -8.59775 0.0 0.0 -0.0 0.0 -0.0 8.00962 34.1466 -5.77 -2.54284 -0.0963146 -0.378324 -14.4409 0.968536 -2.19498 -13.8047 0.0 0.0 0.0 0.0 0.0 
2616.00123198 735.848 -1489.45046818 31.1666801192 72.6019699452 -37.1323060757 -3.8571 0.578654 3.59546 -3.84997 0.348847 3.62494 -3.81665 -0.661294 3.5812 -3.83453 -0.0878027 3.64061 1.2844 16.3289 -0.530472 2.09132 29.3509 0.703204 -0.0 0.0 -0.0 3.75555 2.66139 7.37845 -15.9276 -6.87499 55.8222 1.25161 -31.798 0.356521 -34.3671 -2.37299 3.62745 1.6322 1.82956 11.6985 -0.0 0.0 -0.0 13.481 24.9773 -26.9109 -22.0014 44.6379 -47.777 0.888359 23.7524 -0.186825 -4.41281 0.176228 -0.535695 2.25886 -20.6035 -22.2675 0.0 0.0 0.0 -16.9428 19.8393 5.86258 -37.7227 -0.328277 5.67682 0.845308 -0.199065 -0.124848 -7.80919 0.0 0.0 -0.0 0.0 -0.0 6.30877 35.2184 -5.27993 -1.12547 -0.0447027 -0.16693 -13.2752 2.53339 -2.02573 -14.906 0.0 0.0 0.0 0.0 0.0 
2616.78720288 735.848 -1496.92107587 27.7394273459 70.5816431752 -33.5209065528 -3.8571 0.578654 3.59546 -3.84997 0.348847 3.62494 -3.81665 -0.661294 3.5812 -3.83453 -0.0878027 3.64061 1.2844 16.3289 -0.530472 2.09132 29.3509 0.703204 -0.0 0.0 -0.0 3.75555 2.66139 7.37845 -15.9276 -6.87499 55.8222 1.25161 -31.798 0.356521 -34.3671 -2.37299 3.62745 1.6322 1.82956 11.6985 -0.0 0.0 -0.0 13.481 24.9773 -26.9109 -22.0014 44.6379 -47.777 0.888359 23.7524 -0.186825 -4.41281 0.176228 -0.535695 2.25886 -20.6035 -22.2675 0.0 0.0 0.0 -16.9428 19.8393 5.86258 -37.7227 -0.328277 5.67682 0.845308 -0.199065 -0.124848 -7.80919 0.0 0.0 -0.0 0.0 -0.0 6.30877 35.2184 -5.27993 -1.12547 -0.0447027 -0.16693 -13.2752 2.53339 -2.02573 -14.906 0.0 0.0 0.0 0.0 0.0 
2617.3607094 735.848 -1501.09890527 26.1193179967 69.4208533463 -31.7969395209 -3.8571 0.578654 3.59546 -3.84997 0.348847 3.62494 -3.81665 -0.661294 3.5812 -3.83453 -0.0878027 3.64061 1.2844 16.3289 -0.530472 2.09132 29.3509 0.703204 -0.0 0.0 -0.0 3.75555 2.66139 7.37845 -15.9276 -6.87499 55.8222 1.25161 -31.798 0.356521 -34.3671 -2.37299 3.62745 1.6322 1.82956 11.6985 -0.0 0.0 -0.0 13.481 24.9773 -26.9109 -22.0014 44.6379 -47.777 0.888359 23.7524 -0.186825 -4.41281 0.176228 -0.535695 2.25886 -20.6035 -22.2675 0.0 0.0 0.0 -16.9428 19.8393 5.86258 -37.7227 -0.328277 5.67682 0.845308 -0.199065 -0.124848 -7.80919 0.0 0.0 -0.0 0.0 -0.0 6.30877 35.2184 -5.27993 -1.12547 -0.0447027 -0.16693 -13.2752 2.53339 -2.02573 -14.906 0.0 0.0 0.0 0.0 0.0 
2592.72653645 751.701 -1495.42519099 26.6055256707 70.7054175648 -32.405545928 -3.70339 0.517415 3.60519 -3.6962 0.287114 3.63076 -3.66721 -0.713042 3.57169 -3.68498 -0.140402 3.63937 1.57885 16.8752 -0.706002 2.48583 30.4064 0.464541 -0.0 0.0 -0.0 3.76495 2.98192 7.41146 -17.7717 -5.97957 57.3136 1.14255 -29.5084 0.300907 -33.0152 -2.2408 3.51523 1.74458 1.19455 12.2126 -0.0 0.0 -0.0 13.3908 25.1797 -26.678 -20.4567 45.2388 -47.6625 1.01004 26.5802 -0.238585 -4.16985 0.165454 -0.506562 1.99139 -19.2742 -20.1631 0.0 0.0 0.0 -13.9898 20.6027 2.57888 -37.5197 -0.316561 5.64791 0.328868 -0.589003 -0.0486875 -7.96669 0.0 0.0 -0.0 0.0 -0.0 3.83756 35.9317 -4.42922 -0.463058 -0.0187899 -0.0685769 -12.9258 4.20202 -1.98404 -15.6069 0.0 0.0 0.0 0.0 0.0 
